<?xml version="1.0" encoding="UTF-8" standalone="no"?>
<svg width="1133.86px" height="240.945px" viewBox="0 0 1133.86 240.945"
 xmlns="http://www.w3.org/2000/svg" xmlns:xlink="http://www.w3.org/1999/xlink" version="1.2" baseProfile="tiny">
<title>nova005-phrase-4</title>
<desc>Generated by MuseScore 3.5.0</desc>
<polyline class="StaffLines" fill="none" stroke="#000000" stroke-width="3.22" stroke-linejoin="bevel" points="14.1732,70.0129 1119.69,70.0129"/>
<polyline class="StaffLines" fill="none" stroke="#000000" stroke-width="3.22" stroke-linejoin="bevel" points="14.1732,94.8161 1119.69,94.8161"/>
<polyline class="StaffLines" fill="none" stroke="#000000" stroke-width="3.22" stroke-linejoin="bevel" points="14.1732,119.619 1119.69,119.619"/>
<polyline class="StaffLines" fill="none" stroke="#000000" stroke-width="3.22" stroke-linejoin="bevel" points="14.1732,144.422 1119.69,144.422"/>
<polyline class="StaffLines" fill="none" stroke="#000000" stroke-width="3.22" stroke-linejoin="bevel" points="14.1732,169.226 1119.69,169.226"/>
<path class="SlurSegment" stroke="#000000" stroke-width="2.48" stroke-linecap="round" stroke-linejoin="round" fill-rule="evenodd" d="M307.92,51.7677 C413.083,-13.0857 882.276,17.2982 978.196,95.1732 C881.892,23.2385 412.698,-7.14536 307.92,51.7677"/>
<polyline class="BarLine" stroke="#000000" stroke-width="3.97" stroke-linejoin="bevel" points="407.313,68.4007 407.313,170.838"/>
<polyline class="BarLine" stroke="#000000" stroke-width="3.97" stroke-linejoin="bevel" points="754.174,68.4007 754.174,170.838"/>
<polyline class="BarLine" stroke="#000000" stroke-width="3.97" stroke-linejoin="bevel" points="1117.7,68.4007 1117.7,170.838"/>
<polyline class="LedgerLine" stroke="#000000" stroke-width="3.97" stroke-linecap="square" stroke-linejoin="bevel" points="859.69,194.029 900.956,194.029"/>
<polyline class="LedgerLine" stroke="#000000" stroke-width="3.97" stroke-linecap="square" stroke-linejoin="bevel" points="943.379,194.029 984.645,194.029"/>
<polyline class="Stem" stroke="#000000" stroke-width="2.98" stroke-linecap="round" stroke-linejoin="bevel" points="307.92,153.49 307.92,76.2137"/>
<polyline class="Stem" stroke="#000000" stroke-width="2.98" stroke-linecap="round" stroke-linejoin="bevel" points="371.553,141.089 371.553,70.0129"/>
<polyline class="Stem" stroke="#000000" stroke-width="2.98" stroke-linecap="round" stroke-linejoin="bevel" points="463.957,153.49 463.957,70.0129"/>
<polyline class="Stem" stroke="#000000" stroke-width="2.98" stroke-linecap="round" stroke-linejoin="bevel" points="671.327,178.294 671.327,94.8161"/>
<polyline class="Stem" stroke="#000000" stroke-width="2.98" stroke-linecap="round" stroke-linejoin="bevel" points="725.898,141.089 725.898,70.0129"/>
<polyline class="Stem" stroke="#000000" stroke-width="2.98" stroke-linecap="round" stroke-linejoin="bevel" points="810.818,153.49 810.818,70.0129"/>
<polyline class="Stem" stroke="#000000" stroke-width="2.98" stroke-linecap="round" stroke-linejoin="bevel" points="894.507,190.695 894.507,107.218"/>
<polyline class="Stem" stroke="#000000" stroke-width="2.98" stroke-linecap="round" stroke-linejoin="bevel" points="978.196,203.097 978.196,119.619"/>
<path class="Note" transform="matrix(0.992126,0,0,0.992126,278.063,156.824)" d="M0,3.7 C0,9.5 4.8,13.5 11.5,13.5 C21.9,13.5 31.6,5.5 31.6,-3.7 C31.6,-9.5 26.8,-13.5 20.1,-13.5 C9.7,-13.5 0,-5.5 0,3.7"/>
<path class="Note" transform="matrix(0.992126,0,0,0.992126,341.696,144.422)" d="M0,3.7 C0,9.5 4.8,13.5 11.5,13.5 C21.9,13.5 31.6,5.5 31.6,-3.7 C31.6,-9.5 26.8,-13.5 20.1,-13.5 C9.7,-13.5 0,-5.5 0,3.7"/>
<path class="Note" transform="matrix(0.992126,0,0,0.992126,434.1,156.824)" d="M0,3.7 C0,9.5 4.8,13.5 11.5,13.5 C21.9,13.5 31.6,5.5 31.6,-3.7 C31.6,-9.5 26.8,-13.5 20.1,-13.5 C9.7,-13.5 0,-5.5 0,3.7 M3.5,8 C3.5,3.1 19.7,-9.8 25.9,-9.8 C27.3,-9.8 28.1,-9.1 28.1,-8 C28.1,-3.1 11.9,9.8 5.7,9.8 C4.3,9.8 3.5,9.1 3.5,8"/>
<path class="Note" transform="matrix(0.992126,0,0,0.992126,641.47,181.627)" d="M0,3.7 C0,9.5 4.8,13.5 11.5,13.5 C21.9,13.5 31.6,5.5 31.6,-3.7 C31.6,-9.5 26.8,-13.5 20.1,-13.5 C9.7,-13.5 0,-5.5 0,3.7"/>
<path class="Note" transform="matrix(0.992126,0,0,0.992126,696.041,144.422)" d="M0,3.7 C0,9.5 4.8,13.5 11.5,13.5 C21.9,13.5 31.6,5.5 31.6,-3.7 C31.6,-9.5 26.8,-13.5 20.1,-13.5 C9.7,-13.5 0,-5.5 0,3.7"/>
<path class="Note" transform="matrix(0.992126,0,0,0.992126,780.961,156.824)" d="M0,3.7 C0,9.5 4.8,13.5 11.5,13.5 C21.9,13.5 31.6,5.5 31.6,-3.7 C31.6,-9.5 26.8,-13.5 20.1,-13.5 C9.7,-13.5 0,-5.5 0,3.7"/>
<path class="Note" transform="matrix(0.992126,0,0,0.992126,864.65,194.029)" d="M0,3.7 C0,9.5 4.8,13.5 11.5,13.5 C21.9,13.5 31.6,5.5 31.6,-3.7 C31.6,-9.5 26.8,-13.5 20.1,-13.5 C9.7,-13.5 0,-5.5 0,3.7"/>
<path class="Note" transform="matrix(0.992126,0,0,0.992126,948.339,206.43)" d="M0,3.7 C0,9.5 4.8,13.5 11.5,13.5 C21.9,13.5 31.6,5.5 31.6,-3.7 C31.6,-9.5 26.8,-13.5 20.1,-13.5 C9.7,-13.5 0,-5.5 0,3.7"/>
<path class="Clef" transform="matrix(0.992126,0,0,0.992126,34.0158,144.422)" d="M0,-10.2 C0,8.4 15.7,24.6 34.4,24.6 C37.2,24.6 39.9,24.3 42.4,23.6 C42.4,23.6 45.5,36.7 45.5,41.6 C45.5,52.6 38.1,60 28.4,60 C26.1,60 22.6,59.5 21.2,58.3 C26.4,57.9 30.4,53.5 30.4,48.2 C30.4,42.6 25.9,38.1 20.3,38.1 C14.7,38.1 10.2,42.6 10.2,48.2 C10.2,59.2 21.1,63.3 28.4,63.3 C40.6,63.3 48.8,53.7 48.8,41.6 C48.8,37.1 45.6,22.5 45.6,22.5 C55.8,18.4 62.6,9 62.6,-1.5 C62.6,-14.1 52.6,-25.5 38.8,-25.5 C37.7,-25.5 36.6,-25.5 35.5,-25.3 L31.8,-42.7 C41.6,-52.1 49.9,-62.5 49.9,-77.5 C49.9,-87.1 46.6,-97.6 40.1,-105.4 C38.6,-107.2 37.3,-108 36.4,-108 C35.2,-108 32.2,-105 28.6,-100.2 C25,-95.4 21.7,-87 21.7,-78.2 C21.7,-71.4 26,-53.6 26,-53.6 C13.6,-42.6 0,-27.9 0,-10.2 M9.4,-4.9 C9.4,-12.7 13.6,-25.2 28.9,-40 L32.2,-24.5 C23.3,-21.7 17.8,-13.4 17.8,-5.3 C17.8,3.3 22.5,9.1 29.1,12 C29.1,12 29.6,12.2 29.9,12.2 C30.7,12.2 31.4,11.5 31.4,10.7 C31.4,10.1 31,9.6 30.5,9.3 C26.7,7 24.8,2.4 24.8,-1.7 C24.8,-6.9 28.6,-12.1 34.4,-14.1 L41.8,21 C39.5,21.7 37,22 34.4,22 C21.5,22 9.4,10.8 9.4,-4.9 M26.2,-72.3 C26.2,-81.3 31.8,-93.6 39.9,-93.6 C44,-93.6 44.8,-90.2 44.8,-85.9 C44.8,-75.3 36.9,-64.1 28.9,-56.3 C28.9,-56.3 26.2,-67.9 26.2,-72.3 M37.7,-14.9 C38.4,-15 39,-15 39.7,-15 C50,-15 56.2,-7.5 56.2,1.5 C56.2,9.2 51.3,16.7 45,19.7 L37.7,-14.9 "/>
<path class="KeySig" transform="matrix(0.992126,0,0,0.992126,147.211,82.4145)" d="M-1.5,15.3 C-1.5,16 -0.8,16.5 0,16.5 C0.6,16.5 2,15.5 3.2,14.6 C10.9,8.8 18.5,2.5 18.5,-6.2 C18.5,-10.8 15.5,-14.4 10.2,-14.4 C6.7,-14.4 4.6,-13.3 1.5,-10.8 L1.5,-44.6 C1.5,-44.6 1.5,-46 0,-46 C-1.5,-46 -1.5,-44.6 -1.5,-44.6 L-1.5,15.3 M1.5,-5.8 C2.8,-7.7 4.7,-9.7 7.1,-9.7 C9.7,-9.7 10.8,-8.3 10.8,-6.2 C10.8,2.8 4.9,8.2 1.5,11.2 L1.5,-5.8 "/>
<path class="KeySig" transform="matrix(0.992126,0,0,0.992126,122.408,119.619)" d="M-1.5,15.3 C-1.5,16 -0.8,16.5 0,16.5 C0.6,16.5 2,15.5 3.2,14.6 C10.9,8.8 18.5,2.5 18.5,-6.2 C18.5,-10.8 15.5,-14.4 10.2,-14.4 C6.7,-14.4 4.6,-13.3 1.5,-10.8 L1.5,-44.6 C1.5,-44.6 1.5,-46 0,-46 C-1.5,-46 -1.5,-44.6 -1.5,-44.6 L-1.5,15.3 M1.5,-5.8 C2.8,-7.7 4.7,-9.7 7.1,-9.7 C9.7,-9.7 10.8,-8.3 10.8,-6.2 C10.8,2.8 4.9,8.2 1.5,11.2 L1.5,-5.8 "/>
<path class="TimeSig" transform="matrix(0.992126,0,0,0.992126,190.361,95.5602)" d="M0,10.6 C0,11.5 1,12.1 1.9,12.1 L19.9,12.1 L19.9,14.9 C19.9,18.4 17.7,20.7 15.8,20.7 C15,20.7 13.4,20.8 13.4,22.5 C13.4,23.9 14.5,24.3 15.8,24.3 L36,24.3 C37.3,24.3 38.4,23.9 38.4,22.5 C38.4,20.8 36.8,20.7 36,20.7 C34.1,20.7 31.9,18.4 31.9,14.9 L31.9,12.1 L35.8,12.1 C35.8,12.1 37.1,12 37.1,10.4 C37.1,8.8 35.8,8.7 35.8,8.7 L31.9,8.7 L31.9,-13.4 C31.9,-14.3 31.3,-14.4 31,-14.4 C30.2,-14.4 29.4,-13.4 29.4,-13.4 L23.5,-6.8 C21.1,-4.2 19.9,-2.9 19.9,-1.7 L19.9,8.7 L5,8.7 L32.2,-22 C32.5,-22.3 32.7,-22.8 32.7,-23.1 C32.7,-23.7 32.5,-24.3 31.8,-24.3 L14.4,-24.3 C13.6,-24.3 13.5,-23.5 13.5,-22.1 C13.5,-12.7 8.1,0.9 0.9,8.7 C0,9.7 0,10.3 0,10.6"/>
<path class="TimeSig" transform="matrix(0.992126,0,0,0.992126,190.361,143.678)" d="M0,10.6 C0,11.5 1,12.1 1.9,12.1 L19.9,12.1 L19.9,14.9 C19.9,18.4 17.7,20.7 15.8,20.7 C15,20.7 13.4,20.8 13.4,22.5 C13.4,23.9 14.5,24.3 15.8,24.3 L36,24.3 C37.3,24.3 38.4,23.9 38.4,22.5 C38.4,20.8 36.8,20.7 36,20.7 C34.1,20.7 31.9,18.4 31.9,14.9 L31.9,12.1 L35.8,12.1 C35.8,12.1 37.1,12 37.1,10.4 C37.1,8.8 35.8,8.7 35.8,8.7 L31.9,8.7 L31.9,-13.4 C31.9,-14.3 31.3,-14.4 31,-14.4 C30.2,-14.4 29.4,-13.4 29.4,-13.4 L23.5,-6.8 C21.1,-4.2 19.9,-2.9 19.9,-1.7 L19.9,8.7 L5,8.7 L32.2,-22 C32.5,-22.3 32.7,-22.8 32.7,-23.1 C32.7,-23.7 32.5,-24.3 31.8,-24.3 L14.4,-24.3 C13.6,-24.3 13.5,-23.5 13.5,-22.1 C13.5,-12.7 8.1,0.9 0.9,8.7 C0,9.7 0,10.3 0,10.6"/>
<path class="Rest" transform="matrix(0.992126,0,0,0.992126,554.156,119.619)" d="M0,18.8 C0,25.2 4.3,31.2 11.2,35.8 C11.8,36.2 12.1,36.3 12.6,36.3 C13.1,36.3 13.6,35.9 13.6,35.4 C13.6,34.9 13.4,34.6 12.8,34 C9.9,31.1 8.5,27.7 8.5,24.4 C8.5,21.1 9.9,18 13,15.9 C14.4,15 15.8,14.5 17.6,14.5 C18.2,14.5 19,14.6 19.3,14.7 C19.6,14.8 20.4,15 20.9,15 C21.7,15 22.2,14.4 22.2,13.7 C22.2,13.2 22.1,12.8 19.8,10.8 C17.5,8.8 15.5,3.1 15.5,-2.7 C15.5,-5.4 17,-9.2 18.7,-12.5 C20.4,-15.8 21.6,-19.1 21.6,-21 C21.6,-25.5 5.2,-36.5 4,-36.5 C3.2,-36.5 2.8,-36 2.8,-35.5 C2.8,-35.1 3,-34.7 3.4,-34.3 C6.6,-31.1 8.1,-26.6 8.1,-21.6 C8.1,-15.8 6.6,-9.1 2,-4.1 C1.3,-3.4 1.3,-3.2 1.3,-2.8 C1.3,-1.7 15.8,10.7 15.8,10.7 C15.8,10.7 12.4,10.1 11,10.1 C5.2,10.1 0,13 0,18.8"/>
<path class="Rest" transform="matrix(0.992126,0,0,0.992126,1032.03,119.619)" d="M0,18.8 C0,25.2 4.3,31.2 11.2,35.8 C11.8,36.2 12.1,36.3 12.6,36.3 C13.1,36.3 13.6,35.9 13.6,35.4 C13.6,34.9 13.4,34.6 12.8,34 C9.9,31.1 8.5,27.7 8.5,24.4 C8.5,21.1 9.9,18 13,15.9 C14.4,15 15.8,14.5 17.6,14.5 C18.2,14.5 19,14.6 19.3,14.7 C19.6,14.8 20.4,15 20.9,15 C21.7,15 22.2,14.4 22.2,13.7 C22.2,13.2 22.1,12.8 19.8,10.8 C17.5,8.8 15.5,3.1 15.5,-2.7 C15.5,-5.4 17,-9.2 18.7,-12.5 C20.4,-15.8 21.6,-19.1 21.6,-21 C21.6,-25.5 5.2,-36.5 4,-36.5 C3.2,-36.5 2.8,-36 2.8,-35.5 C2.8,-35.1 3,-34.7 3.4,-34.3 C6.6,-31.1 8.1,-26.6 8.1,-21.6 C8.1,-15.8 6.6,-9.1 2,-4.1 C1.3,-3.4 1.3,-3.2 1.3,-2.8 C1.3,-1.7 15.8,10.7 15.8,10.7 C15.8,10.7 12.4,10.1 11,10.1 C5.2,10.1 0,13 0,18.8"/>
<path class="Beam" fill-rule="evenodd" d="M306.432,70.2736 L373.041,63.7828 L373.041,76.2431 L306.432,82.7339 L306.432,70.2736 "/>
<path class="Beam" fill-rule="evenodd" d="M669.839,89.3577 L727.386,63.2017 L727.386,76.8242 L669.839,102.98 L669.839,89.3577 "/>
</svg>
